<?xml version="1.0" encoding="utf-8"?>
<!-- Generator: Adobe Illustrator 16.0.0, SVG Export Plug-In . SVG Version: 6.00 Build 0)  -->
<!DOCTYPE svg PUBLIC "-//W3C//DTD SVG 1.0//EN" "http://www.w3.org/TR/2001/REC-SVG-20010904/DTD/svg10.dtd">
<svg version="1.0" id="Layer_1" xmlns="http://www.w3.org/2000/svg" xmlns:xlink="http://www.w3.org/1999/xlink" x="0px" y="0px"
	 width="842px" height="122.004px" viewBox="0 0 842 122.004" enable-background="new 0 0 842 122.004" xml:space="preserve">
<g>
	<linearGradient id="SVGID_1_" gradientUnits="userSpaceOnUse" x1="49.4375" y1="0.1987" x2="49.4375" y2="121.3896">
		<stop  offset="0" style="stop-color:#FF0000"/>
		<stop  offset="0.3333" style="stop-color:#EA1D25"/>
		<stop  offset="0.6667" style="stop-color:#FF0970"/>
		<stop  offset="1" style="stop-color:#D50097"/>
	</linearGradient>
	<path fill="url(#SVGID_1_)" d="M94.333,117.677c0.813,2.206,2.328,3.307,4.542,3.307v0.871H65.16v-0.871
		c0.813,0,1.485-0.288,2.009-0.87c0.524-0.58,0.786-1.219,0.786-1.915c0-0.232-0.03-0.405-0.088-0.522
		c-0.06-0.114-0.087-0.289-0.087-0.522l-8.385-24.371H23.758l-4.192,12.011c-0.349,1.279-0.524,2.555-0.524,3.831
		c0,3.367,1.193,6.267,3.581,8.703c2.386,2.438,5.268,3.656,8.647,3.656v0.871H0v-0.871c2.211,0,4.28-0.435,6.202-1.305
		c1.921-0.871,3.668-2.029,5.241-3.482c1.572-1.45,2.94-3.104,4.105-4.961c1.163-1.854,2.096-3.77,2.795-5.744l4.542-13.404v-0.348
		h0.175L54.329,0L94.333,117.677z M59.046,91.739L41.577,40.212L23.933,91.739H59.046z"/>
	<linearGradient id="SVGID_2_" gradientUnits="userSpaceOnUse" x1="138.7051" y1="0.1987" x2="138.7051" y2="121.3895">
		<stop  offset="0" style="stop-color:#FF0000"/>
		<stop  offset="0.3333" style="stop-color:#EA1D25"/>
		<stop  offset="0.6667" style="stop-color:#FF0970"/>
		<stop  offset="1" style="stop-color:#D50097"/>
	</linearGradient>
	<path fill="url(#SVGID_2_)" d="M159.493,84.253c3.726,0,6.958,1.366,9.696,4.091c2.735,2.728,4.105,5.949,4.105,9.662
		c0,3.367-0.903,6.471-2.708,9.313c-1.807,2.845-4.223,5.369-7.25,7.572c-3.03,2.206-6.581,3.917-10.656,5.135
		c-4.078,1.219-8.445,1.828-13.102,1.828c-6.174,0-11.734-1.132-16.683-3.394c-4.951-2.264-9.144-5.337-12.578-9.227
		c-3.437-3.887-6.057-8.442-7.861-13.665c-1.807-5.223-2.708-10.793-2.708-16.712c0-5.918,0.901-11.489,2.708-16.711
		c1.804-5.222,4.424-9.748,7.861-13.578c3.434-3.83,7.626-6.876,12.578-9.139c4.949-2.263,10.509-3.395,16.683-3.395
		c5.59,0,10.713,1.017,15.373,3.046c4.657,2.032,8.675,4.643,12.054,7.834c3.376,3.193,5.997,6.819,7.861,10.879
		c1.861,4.064,2.795,8.068,2.795,12.011h-50.485v9.052v11.315c0,5.919,0.319,10.823,0.96,14.709c0.639,3.89,1.6,7.023,2.882,9.4
		c1.28,2.38,2.883,4.064,4.804,5.048c1.921,0.988,4.22,1.48,6.9,1.48c1.861,0,3.988-0.405,6.376-1.218
		c2.386-0.811,3.871-2.32,4.455-4.526c0.35-1.625,0.027-2.987-0.96-4.092c-0.991-1.101-1.952-2.116-2.883-3.046
		c-2.794-2.785-4.192-6.093-4.192-9.922c0-3.713,1.368-6.934,4.105-9.662C152.358,85.619,155.65,84.253,159.493,84.253z
		 M135.91,38.123c-3.03,1.626-5.241,4.7-6.638,9.226s-2.096,11.315-2.096,20.367v1.219h24.806c0-3.017-0.06-6.093-0.174-9.227
		c-0.118-3.133-0.467-6.093-1.048-8.878c-0.584-2.785-1.485-5.279-2.708-7.485c-1.223-2.203-2.882-3.944-4.979-5.222
		c-0.234-0.114-0.642-0.289-1.223-0.522c-0.584-0.231-1.34-0.348-2.271-0.348c-0.934,0-1.72,0.117-2.358,0.348
		C136.579,37.834,136.142,38.009,135.91,38.123z"/>
	<linearGradient id="SVGID_3_" gradientUnits="userSpaceOnUse" x1="221.0112" y1="0.1987" x2="221.0112" y2="121.3897">
		<stop  offset="0" style="stop-color:#FF0000"/>
		<stop  offset="0.3333" style="stop-color:#EA1D25"/>
		<stop  offset="0.6667" style="stop-color:#FF0970"/>
		<stop  offset="1" style="stop-color:#D50097"/>
	</linearGradient>
	<path fill="url(#SVGID_3_)" d="M248.758,37.949c3.259,1.975,5.385,4.787,6.376,8.443c0.988,3.656,0.494,7.11-1.485,10.358
		c-1.981,3.367-4.804,5.543-8.473,6.528c-3.668,0.987-7.135,0.495-10.394-1.48c-3.379-1.972-5.533-4.814-6.463-8.53
		c-0.467-1.624-0.642-3.073-0.524-4.352c0.115-1.276,0.29-2.407,0.524-3.395c0.232-0.984,0.376-1.854,0.437-2.611
		c0.058-0.753-0.205-1.363-0.786-1.828c-0.467-0.462-1.135-0.636-2.009-0.522c-0.874,0.117-1.777,0.378-2.708,0.783
		c-0.933,0.408-1.894,0.93-2.882,1.567c-0.991,0.639-1.834,1.249-2.533,1.828c0.464,1.51,0.699,3.716,0.699,6.615v38.645v5.571
		v20.889c0,1.279,0.407,2.323,1.223,3.134c0.813,0.813,1.861,1.218,3.144,1.218v1.044h-2.446h-14.499h-19.565v-1.044
		c1.28,0,2.328-0.405,3.145-1.218c0.813-0.811,1.223-1.855,1.223-3.134V95.569V41.431c0-1.276-0.41-2.32-1.223-3.134
		c-0.816-0.811-1.864-1.218-3.145-1.218v-1.044h19.565c6.521,0,10.421,2.554,11.704,7.659c1.397-1.044,3.289-2.233,5.678-3.568
		c2.385-1.333,5.006-2.438,7.861-3.308c2.853-0.871,5.822-1.306,8.909-1.306C243.195,35.512,246.078,36.325,248.758,37.949z"/>
	<linearGradient id="SVGID_4_" gradientUnits="userSpaceOnUse" x1="299.2393" y1="0.1982" x2="299.2393" y2="121.39">
		<stop  offset="0" style="stop-color:#FF0000"/>
		<stop  offset="0.3333" style="stop-color:#EA1D25"/>
		<stop  offset="0.6667" style="stop-color:#FF0970"/>
		<stop  offset="1" style="stop-color:#D50097"/>
	</linearGradient>
	<path fill="url(#SVGID_4_)" d="M333.31,116.458c0,1.279,0.407,2.323,1.223,3.134c0.813,0.813,1.862,1.218,3.145,1.218v1.044
		h-19.565c-3.729,0-6.523-0.696-8.385-2.089c-1.864-1.393-3.087-3.713-3.668-6.963c-2.331,2.554-5.183,4.613-8.56,6.18
		c-3.379,1.567-6.988,2.525-10.831,2.873c-3.729,0.348-7.222,0.087-10.481-0.783c-3.262-0.871-6.087-2.32-8.472-4.352
		c-2.389-2.029-4.223-4.554-5.503-7.573c-1.283-3.016-1.689-6.498-1.223-10.445c0.349-3.482,1.337-6.441,2.969-8.878
		c1.63-2.438,3.609-4.554,5.94-6.354c2.328-1.798,4.948-3.308,7.861-4.526c2.91-1.219,5.879-2.29,8.909-3.221
		c6.171-1.854,10.626-3.713,13.364-5.57c2.735-1.855,4.569-3.596,5.503-5.223v-8.704c0-6.615-0.718-11.546-2.153-14.796
		c-1.436-3.248-4.332-4.583-8.694-4.004c-5.347,0.582-8.369,2.437-9.068,5.57c-0.349,1.626,0,2.989,1.048,4.091
		c1.048,1.104,2.036,2.119,2.97,3.046c1.28,1.278,2.271,2.728,2.97,4.352c0.699,1.626,1.048,3.424,1.048,5.396
		c0,3.83-1.349,7.08-4.045,9.749c-2.697,2.671-5.978,4.003-9.843,4.003c-3.868,0-7.149-1.333-9.846-4.003
		c-2.697-2.668-4.042-5.919-4.042-9.749c0-3.248,0.874-6.324,2.621-9.227c1.747-2.899,4.162-5.423,7.25-7.572
		c3.084-2.146,6.666-3.83,10.744-5.048c4.075-1.218,8.442-1.828,13.102-1.828c4.657,0,9.024,0.609,13.102,1.828
		c4.075,1.219,7.626,2.902,10.656,5.048c3.027,2.149,5.443,4.673,7.25,7.572c1.804,2.902,2.708,5.979,2.708,9.227v49.09v1.219v4.526
		V116.458z M303.787,113.673c0.35-0.349,0.699-0.667,1.048-0.958c0.349-0.289,0.699-0.609,1.048-0.957
		c-0.118-0.811-0.205-1.654-0.262-2.524c-0.06-0.871-0.087-1.768-0.087-2.698V99.92V66.671c-1.632,2.089-3.467,3.86-5.503,5.31
		c-2.039,1.453-3.99,3.193-5.852,5.222c-1.864,2.032-3.437,4.7-4.716,8.007c-1.283,3.308-1.922,7.806-1.922,13.491
		c0,4.412,0.551,7.863,1.66,10.357c1.105,2.498,2.503,4.265,4.192,5.31c1.687,1.044,3.464,1.453,5.328,1.219
		C300.583,115.356,302.272,114.717,303.787,113.673z"/>
	<linearGradient id="SVGID_5_" gradientUnits="userSpaceOnUse" x1="387.6372" y1="0.1987" x2="387.6372" y2="121.3895">
		<stop  offset="0" style="stop-color:#FF0000"/>
		<stop  offset="0.3333" style="stop-color:#EA1D25"/>
		<stop  offset="0.6667" style="stop-color:#FF0970"/>
		<stop  offset="1" style="stop-color:#D50097"/>
	</linearGradient>
	<path fill="url(#SVGID_5_)" d="M425.719,119.592c0.813,0.813,1.862,1.218,3.145,1.218v1.044h-2.271h-14.704h-19.612v-1.044
		c1.253,0,2.307-0.405,3.161-1.218c0.854-0.811,1.283-1.855,1.283-3.134v-12.359V54.66c0-4.061-0.642-7.077-1.921-9.052
		c-1.283-1.972-2.883-3.191-4.804-3.656c-1.922-0.462-3.961-0.348-6.114,0.348c-2.157,0.696-4.105,1.566-5.852,2.611
		c0.349,1.975,0.524,4.121,0.524,6.441v38.645v5.571v20.889c0,1.279,0.415,2.323,1.245,3.134c0.83,0.813,1.895,1.218,3.199,1.218
		v1.044h-2.451h-14.535H346.41v-1.044c1.28,0,2.328-0.405,3.145-1.218c0.813-0.811,1.223-1.855,1.223-3.134V95.569V41.431
		c0-1.276-0.409-2.32-1.223-3.134c-0.816-0.811-1.864-1.218-3.145-1.218v-1.044h19.565c3.376,0,5.997,0.609,7.861,1.828
		c1.861,1.218,3.144,3.22,3.843,6.005c3.974-2.437,8.153-4.352,12.537-5.744c4.383-1.393,8.563-2.089,12.536-2.089
		c2.921,0,5.727,0.408,8.416,1.218c2.689,0.813,4.998,2.119,6.927,3.917c1.928,1.8,3.478,4.121,4.646,6.963
		c1.168,2.845,1.754,6.297,1.754,10.358v48.22v9.748C424.497,117.737,424.903,118.781,425.719,119.592z"/>
	<linearGradient id="SVGID_6_" gradientUnits="userSpaceOnUse" x1="503.7173" y1="0.1987" x2="503.7173" y2="121.3896">
		<stop  offset="0" style="stop-color:#FF0000"/>
		<stop  offset="0.3333" style="stop-color:#EA1D25"/>
		<stop  offset="0.6667" style="stop-color:#FF0970"/>
		<stop  offset="1" style="stop-color:#D50097"/>
	</linearGradient>
	<path fill="url(#SVGID_6_)" d="M533.327,93.131c0,3.599-0.846,7.11-2.533,10.532c-1.689,3.424-3.96,6.5-6.813,9.226
		c-2.855,2.729-6.231,4.905-10.133,6.528c-3.902,1.627-8.007,2.437-12.315,2.437c-4.427,0-8.56-0.667-12.403-2.001
		c-3.843-1.333-7.222-3.191-10.132-5.571c-2.913-2.377-5.184-5.135-6.813-8.268c-1.632-3.134-2.446-6.498-2.446-10.097
		c0-3.83,1.346-7.078,4.042-9.749c2.697-2.668,5.978-4.004,9.845-4.004c3.865,0,7.146,1.335,9.843,4.004
		c2.697,2.671,4.045,5.918,4.045,9.749c0,4.063-1.515,7.428-4.542,10.097c-1.747,1.626-2.795,3.133-3.145,4.526
		c-0.349,1.393-0.409,2.728-0.174,4.003c0.232,1.279,1.048,2.642,2.446,4.091c1.397,1.452,3.259,2.062,5.59,1.828
		c1.594-0.114,2.904-0.928,3.93-2.437c1.023-1.507,1.821-3.509,2.392-6.005c0.57-2.495,0.969-5.367,1.198-8.617
		c0.227-3.248,0.341-6.672,0.341-10.271V5.396c0-1.275-0.41-2.32-1.223-3.133c-0.816-0.811-1.864-1.218-3.144-1.218V0h33.715h2.796
		v1.044c-1.283,0-2.332,0.408-3.145,1.218c-0.816,0.813-1.223,1.858-1.223,3.133v4.875V93.131z"/>
	<linearGradient id="SVGID_7_" gradientUnits="userSpaceOnUse" x1="586.2563" y1="0.1987" x2="586.2563" y2="121.3895">
		<stop  offset="0" style="stop-color:#FF0000"/>
		<stop  offset="0.3333" style="stop-color:#EA1D25"/>
		<stop  offset="0.6667" style="stop-color:#FF0970"/>
		<stop  offset="1" style="stop-color:#D50097"/>
	</linearGradient>
	<path fill="url(#SVGID_7_)" d="M607.045,84.253c3.727,0,6.957,1.366,9.695,4.091c2.735,2.728,4.105,5.949,4.105,9.662
		c0,3.367-0.903,6.471-2.708,9.313c-1.807,2.845-4.223,5.369-7.25,7.572c-3.029,2.206-6.58,3.917-10.655,5.135
		c-4.079,1.219-8.446,1.828-13.102,1.828c-6.174,0-11.734-1.132-16.683-3.394c-4.951-2.264-9.145-5.337-12.578-9.227
		c-3.437-3.887-6.057-8.442-7.861-13.665c-1.807-5.223-2.708-10.793-2.708-16.712c0-5.918,0.9-11.489,2.708-16.711
		c1.805-5.222,4.424-9.748,7.861-13.578c3.433-3.83,7.626-6.876,12.578-9.139c4.949-2.263,10.509-3.395,16.683-3.395
		c5.59,0,10.713,1.017,15.373,3.046c4.657,2.032,8.675,4.643,12.054,7.834c3.376,3.193,5.997,6.819,7.861,10.879
		c1.861,4.064,2.795,8.068,2.795,12.011h-50.486v9.052v11.315c0,5.919,0.32,10.823,0.96,14.709c0.64,3.89,1.6,7.023,2.883,9.4
		c1.279,2.38,2.882,4.064,4.803,5.048c1.922,0.988,4.22,1.48,6.9,1.48c1.861,0,3.988-0.405,6.376-1.218
		c2.386-0.811,3.871-2.32,4.455-4.526c0.35-1.625,0.027-2.987-0.961-4.092c-0.99-1.101-1.951-2.116-2.882-3.046
		c-2.795-2.785-4.193-6.093-4.193-9.922c0-3.713,1.368-6.934,4.106-9.662C599.91,85.619,603.201,84.253,607.045,84.253z
		 M583.462,38.123c-3.03,1.626-5.241,4.7-6.639,9.226s-2.096,11.315-2.096,20.367v1.219h24.806c0-3.017-0.061-6.093-0.175-9.227
		c-0.117-3.133-0.467-6.093-1.048-8.878c-0.584-2.785-1.485-5.279-2.708-7.485c-1.223-2.203-2.882-3.944-4.979-5.222
		c-0.234-0.114-0.641-0.289-1.223-0.522c-0.585-0.231-1.341-0.348-2.271-0.348c-0.934,0-1.72,0.117-2.358,0.348
		C584.13,37.834,583.693,38.009,583.462,38.123z"/>
	<linearGradient id="SVGID_8_" gradientUnits="userSpaceOnUse" x1="673.7754" y1="0.1987" x2="673.7754" y2="121.3895">
		<stop  offset="0" style="stop-color:#FF0000"/>
		<stop  offset="0.3333" style="stop-color:#EA1D25"/>
		<stop  offset="0.6667" style="stop-color:#FF0970"/>
		<stop  offset="1" style="stop-color:#D50097"/>
	</linearGradient>
	<path fill="url(#SVGID_8_)" d="M673.774,36.034c6.172,0,11.704,1.131,16.595,3.395c4.893,2.263,9.055,5.309,12.491,9.139
		c3.434,3.83,6.084,8.355,7.948,13.578c1.862,5.223,2.796,10.793,2.796,16.711c0,5.919-0.934,11.489-2.796,16.712
		c-1.864,5.223-4.515,9.778-7.948,13.665c-3.437,3.89-7.599,6.963-12.491,9.227c-4.891,2.262-10.423,3.394-16.595,3.394
		c-6.175,0-11.734-1.132-16.684-3.394c-4.95-2.264-9.144-5.337-12.577-9.227c-3.436-3.887-6.057-8.442-7.861-13.665
		c-1.807-5.223-2.707-10.793-2.707-16.712c0-5.918,0.9-11.489,2.707-16.711c1.805-5.222,4.426-9.748,7.861-13.578
		c3.434-3.83,7.627-6.876,12.577-9.139C662.04,37.166,667.6,36.034,673.774,36.034z M686.178,67.716
		c0-10.559-1.021-18.249-3.057-23.065c-2.039-4.814-5.154-7.224-9.347-7.224s-7.31,2.41-9.347,7.224
		c-2.039,4.817-3.057,12.506-3.057,23.065v11.141v11.315c0,10.562,1.018,18.251,3.057,23.065c2.037,4.817,5.154,7.224,9.347,7.224
		s7.308-2.407,9.347-7.224c2.036-4.814,3.057-12.504,3.057-23.065V78.857V67.716z"/>
	<linearGradient id="SVGID_9_" gradientUnits="userSpaceOnUse" x1="763.5645" y1="0.1987" x2="763.5645" y2="121.3895">
		<stop  offset="0" style="stop-color:#FF0000"/>
		<stop  offset="0.3333" style="stop-color:#EA1D25"/>
		<stop  offset="0.6667" style="stop-color:#FF0970"/>
		<stop  offset="1" style="stop-color:#D50097"/>
	</linearGradient>
	<path fill="url(#SVGID_9_)" d="M801.646,119.592c0.814,0.813,1.862,1.218,3.146,1.218v1.044h-2.271h-14.704h-19.611v-1.044
		c1.252,0,2.307-0.405,3.161-1.218c0.854-0.811,1.282-1.855,1.282-3.134v-12.359V54.66c0-4.061-0.641-7.077-1.922-9.052
		c-1.282-1.972-2.882-3.191-4.804-3.656c-1.921-0.462-3.96-0.348-6.114,0.348c-2.155,0.696-4.104,1.566-5.852,2.611
		c0.349,1.975,0.523,4.121,0.523,6.441v38.645v5.571v20.889c0,1.279,0.415,2.323,1.245,3.134c0.829,0.813,1.895,1.218,3.198,1.218
		v1.044h-2.45h-14.535h-19.601v-1.044c1.279,0,2.328-0.405,3.145-1.218c0.813-0.811,1.223-1.855,1.223-3.134V95.569V41.431
		c0-1.276-0.409-2.32-1.223-3.134c-0.816-0.811-1.865-1.218-3.145-1.218v-1.044h19.565c3.376,0,5.997,0.609,7.86,1.828
		c1.862,1.218,3.146,3.22,3.844,6.005c3.975-2.437,8.153-4.352,12.537-5.744c4.383-1.393,8.563-2.089,12.536-2.089
		c2.921,0,5.728,0.408,8.415,1.218c2.689,0.813,4.998,2.119,6.928,3.917c1.928,1.8,3.478,4.121,4.646,6.963
		c1.168,2.845,1.754,6.297,1.754,10.358v48.22v9.748C800.424,117.737,800.831,118.781,801.646,119.592z"/>
	<linearGradient id="SVGID_10_" gradientUnits="userSpaceOnUse" x1="828.1123" y1="0.1997" x2="828.1123" y2="121.3896">
		<stop  offset="0" style="stop-color:#FF0000"/>
		<stop  offset="0.3333" style="stop-color:#EA1D25"/>
		<stop  offset="0.6667" style="stop-color:#FF0970"/>
		<stop  offset="1" style="stop-color:#D50097"/>
	</linearGradient>
	<path fill="url(#SVGID_10_)" d="M842,108.102c0,3.83-1.349,7.081-4.045,9.749c-2.696,2.671-5.979,4.004-9.843,4.004
		c-3.868,0-7.148-1.333-9.846-4.004c-2.696-2.668-4.042-5.918-4.042-9.749c0-3.83,1.346-7.077,4.042-9.749
		c2.697-2.668,5.978-4.003,9.846-4.003c3.864,0,7.146,1.335,9.843,4.003C840.651,101.025,842,104.272,842,108.102z"/>
</g>
</svg>
