<?xml version="1.0" encoding="utf-8"?>
<!-- Generator: Adobe Illustrator 16.0.0, SVG Export Plug-In . SVG Version: 6.00 Build 0)  -->
<!DOCTYPE svg PUBLIC "-//W3C//DTD SVG 1.0//EN" "http://www.w3.org/TR/2001/REC-SVG-20010904/DTD/svg10.dtd">
<svg version="1.0" id="Layer_1" xmlns="http://www.w3.org/2000/svg" xmlns:xlink="http://www.w3.org/1999/xlink" x="0px" y="0px"
	 width="624px" height="510px" viewBox="-606.404 -227.488 624 510" enable-background="new -606.404 -227.488 624 510"
	 xml:space="preserve">
<g>
	<linearGradient id="SVGID_1_" gradientUnits="userSpaceOnUse" x1="-1340.8242" y1="-318.4358" x2="-1340.8242" y2="170.6095">
		<stop  offset="0" style="stop-color:#FD0000"/>
		<stop  offset="0.3333" style="stop-color:#ED1931"/>
		<stop  offset="0.6666" style="stop-color:#FD0C68"/>
		<stop  offset="1" style="stop-color:#CB018F"/>
	</linearGradient>
	<path fill="url(#SVGID_1_)" d="M-1257.719-118.087v-2.458h-6.837h-82.464v2.458c3.131,0,5.695,0.959,7.691,2.868
		c1.989,1.915,2.991,4.372,2.991,7.374V98.62c0,8.469-0.281,16.526-0.836,24.169c-0.56,7.648-1.534,14.409-2.93,20.28
		c-1.396,5.874-3.346,10.584-5.849,14.131c-2.512,3.554-5.715,5.467-9.614,5.737c-5.702,0.55-10.255-0.884-13.673-4.304
		c-3.417-3.41-5.414-6.617-5.981-9.625c-0.574-3.003-0.426-6.145,0.428-9.422c0.854-3.278,3.417-6.825,7.69-10.652
		c7.403-6.278,11.109-14.197,11.109-23.759c0-9.014-3.298-16.656-9.894-22.941c-6.596-6.28-14.621-9.423-24.074-9.423
		c-9.461,0-17.485,3.143-24.081,9.423c-6.597,6.285-9.888,13.928-9.888,22.941c0,8.468,1.989,16.386,5.982,23.759
		c3.985,7.374,9.541,13.864,16.663,19.459c7.117,5.601,15.382,9.971,24.783,13.107c9.399,3.144,19.508,4.713,30.336,4.713
		c10.534,0,20.576-1.91,30.122-5.735c9.539-3.823,17.798-8.942,24.781-15.363c6.978-6.412,12.53-13.652,16.664-21.712
		c4.126-8.052,6.196-16.317,6.196-24.785h0.001V-96.376v-11.47c0-3.002,0.994-5.459,2.99-7.374
		C-1263.42-117.126-1260.857-118.087-1257.719-118.087z"/>
	<linearGradient id="SVGID_2_" gradientUnits="userSpaceOnUse" x1="-1493.5332" y1="-247.6501" x2="-1493.5332" y2="241.3918">
		<stop  offset="0" style="stop-color:#FD0000"/>
		<stop  offset="0.3333" style="stop-color:#ED1931"/>
		<stop  offset="0.6666" style="stop-color:#FD0C68"/>
		<stop  offset="1" style="stop-color:#CB018F"/>
	</linearGradient>
	<path fill="url(#SVGID_2_)" d="M-1383.998,227.165l-97.602-276.926l-76.292,215.887h-0.426v0.82l-11.083,31.542
		c-1.704,4.646-3.981,9.153-6.819,13.52c-2.843,4.371-6.18,8.262-10.015,11.675c-3.837,3.417-8.099,6.144-12.787,8.192
		c-4.688,2.048-9.735,3.074-15.13,3.074v2.047h76.293v-2.047c-8.244,0-15.277-2.867-21.098-8.603
		c-5.827-5.734-8.737-12.56-8.737-20.483c0-3.002,0.427-6.004,1.278-9.015l10.229-28.264h86.947l20.458,57.352
		c0,0.551,0.065,0.961,0.213,1.229c0.14,0.275,0.214,0.686,0.214,1.229c0,1.641-0.641,3.144-1.919,4.507
		c-1.279,1.371-2.917,2.049-4.901,2.049v2.047h82.259v-2.047C-1378.317,234.949-1382.012,232.356-1383.998,227.165z
		 M-1555.759,166.126l43.047-121.257l42.622,121.257H-1555.759z"/>
	<linearGradient id="SVGID_3_" gradientUnits="userSpaceOnUse" x1="-1135.624" y1="-125.1292" x2="-1135.624" y2="384.8708">
		<stop  offset="0" style="stop-color:#FD0000"/>
		<stop  offset="0.3333" style="stop-color:#ED1931"/>
		<stop  offset="0.6666" style="stop-color:#FD0C68"/>
		<stop  offset="1" style="stop-color:#CB018F"/>
	</linearGradient>
	<path fill="url(#SVGID_3_)" d="M-1004.566,359.396c-4.549,3.828-9.522,5.396-14.917,4.711c-5.4-0.68-10.229-3.072-14.49-7.168
		c-5.401-5.188-10.376-12.428-14.918-21.713c-4.548-9.282-8.95-18.979-13.213-29.086c-4.262-10.101-8.669-19.933-13.211-29.494
		c-4.549-9.557-9.523-17.341-14.917-23.352c-8.524-8.736-17.476-14.473-26.852-17.203c21.876-4.097,38.711-12.701,50.506-25.81
		c11.787-13.107,17.688-29.905,17.688-50.387c0-24.579-8.523-43.832-25.572-57.761c-17.049-13.928-40.916-20.894-71.604-20.894
		h-43.899h-49.014h-29.408v2.46c3.122,0,5.681,0.959,7.671,2.867c1.984,1.913,2.983,4.372,2.983,7.372v10.24v156.49v38.096v35.64
		v20.891c0,3.01-0.999,5.469-2.983,7.373c-1.99,1.916-4.549,2.869-7.671,2.869v2.457h59.243h29.834v-2.457
		c-3.129,0-5.688-0.953-7.672-2.869c-1.991-1.904-2.983-4.363-2.983-7.373v-20.891V304.91v-43.014v-22.938
		c9.657,0.275,16.835,3.961,21.523,11.061c4.69,7.104,8.666,15.911,11.936,26.423c3.262,10.515,6.46,21.781,9.588,33.795
		c3.126,12.021,7.813,23.216,14.065,33.591c6.248,10.381,14.984,19.051,26.212,26.014c11.222,6.965,26.354,10.445,45.392,10.445
		c7.672,0,14.771-0.684,21.311-2.049c6.534-1.367,12.287-3.07,17.262-5.119c4.968-2.049,9.164-4.17,12.573-6.352
		s5.82-4.096,7.243-5.732L-1004.566,359.396z M-1133.704,219.906c-4.835,5.875-10.017,10.105-15.556,12.7
		c-5.541,2.596-10.73,3.89-15.559,3.89h-25.146v-92.17v-25.811v-14.338v-10.24c0-3,0.992-5.46,2.984-7.372
		c1.983-1.908,4.541-2.867,7.671-2.867h4.263h11.934h2.558c4.827,0,9.802,1.229,14.915,3.688c5.117,2.457,9.805,6.694,14.066,12.698
		c4.262,6.012,7.812,13.864,10.654,23.556c2.839,9.697,4.263,21.782,4.265,36.253c0,14.478-1.638,26.627-4.901,36.458
		C-1124.826,206.183-1128.876,214.036-1133.704,219.906z"/>
</g>
<g>
	<linearGradient id="SVGID_4_" gradientUnits="userSpaceOnUse" x1="414.4805" y1="-619.1326" x2="414.4804" y2="-109.1334">
		<stop  offset="0" style="stop-color:#FD0000"/>
		<stop  offset="0.3333" style="stop-color:#ED1931"/>
		<stop  offset="0.6666" style="stop-color:#FD0C68"/>
		<stop  offset="1" style="stop-color:#CB018F"/>
	</linearGradient>
	<path fill="url(#SVGID_4_)" d="M530.621-129.897c-5.4-0.68-10.229-3.072-14.49-7.168c-5.4-5.188-10.375-12.428-14.918-21.713
		c-4.547-9.282-8.949-18.979-13.213-29.086c-4.262-10.101-8.668-19.933-13.211-29.494c-4.549-9.557-9.523-17.341-14.916-23.352
		c-8.525-8.736-17.477-14.473-26.852-17.203c21.875-4.097,38.711-12.701,50.506-25.81c11.787-13.107,17.688-29.905,17.688-50.387
		c0-24.579-8.523-43.832-25.572-57.761c-17.049-13.928-40.916-20.894-71.604-20.894h-43.9h-49.014h-29.408v2.46
		c3.122,0,5.681,0.959,7.671,2.867c1.984,1.913,2.983,4.372,2.983,7.372v10.24v156.49v38.096v35.64v20.891
		c0,3.01-0.999,5.469-2.983,7.373c-1.99,1.916-4.549,2.869-7.671,2.869v2.457h59.244h29.834v-2.457
		c-3.129,0-5.688-0.953-7.672-2.869c-1.992-1.904-2.984-4.363-2.984-7.373v-20.891v-29.495v-43.014v-22.938
		c9.658,0.275,16.836,3.961,21.523,11.061c4.691,7.104,8.666,15.911,11.936,26.423c3.262,10.515,6.461,21.781,9.588,33.795
		c3.127,12.021,7.813,23.216,14.066,33.591c6.248,10.381,14.984,19.051,26.211,26.014c11.223,6.965,26.354,10.445,45.393,10.445
		c7.672,0,14.77-0.684,21.311-2.049c6.533-1.367,12.287-3.07,17.262-5.119c4.967-2.049,9.164-4.17,12.572-6.352
		c3.41-2.182,5.82-4.096,7.244-5.732l-1.705-1.639C540.99-130.78,536.016-129.212,530.621-129.897z M416.4-274.097
		c-4.834,5.875-10.016,10.105-15.555,12.7c-5.541,2.596-10.73,3.89-15.559,3.89h-25.146v-92.17v-25.811v-14.338v-10.24
		c0-3,0.992-5.46,2.984-7.372c1.982-1.908,4.541-2.867,7.67-2.867h4.264h11.934h2.557c4.828,0,9.803,1.229,14.916,3.688
		c5.117,2.457,9.805,6.694,14.066,12.698c4.262,6.012,7.811,13.864,10.654,23.556c2.838,9.697,4.262,21.782,4.264,36.253
		c0,14.478-1.637,26.627-4.9,36.458C425.279-287.821,421.229-279.968,416.4-274.097z"/>
	<linearGradient id="SVGID_5_" gradientUnits="userSpaceOnUse" x1="209.2803" y1="-619.1331" x2="209.2803" y2="-109.1331">
		<stop  offset="0" style="stop-color:#FD0000"/>
		<stop  offset="0.3333" style="stop-color:#ED1931"/>
		<stop  offset="0.6666" style="stop-color:#FD0C68"/>
		<stop  offset="1" style="stop-color:#CB018F"/>
	</linearGradient>
	<path fill="url(#SVGID_5_)" d="M292.385-612.091v-2.458h-6.837h-82.464v2.458c3.131,0,5.695,0.959,7.691,2.868
		c1.989,1.915,2.991,4.372,2.991,7.374v206.466c0,8.469-0.281,16.526-0.836,24.169c-0.56,7.648-1.534,14.409-2.93,20.28
		c-1.396,5.874-3.346,10.584-5.849,14.131c-2.512,3.554-5.715,5.467-9.614,5.737c-5.702,0.55-10.255-0.884-13.673-4.304
		c-3.417-3.41-5.414-6.617-5.981-9.625c-0.574-3.003-0.426-6.145,0.428-9.422c0.854-3.278,3.417-6.825,7.69-10.652
		c7.403-6.278,11.109-14.197,11.109-23.759c0-9.014-3.298-16.656-9.894-22.941c-6.596-6.28-14.621-9.423-24.074-9.423
		c-9.461,0-17.485,3.143-24.081,9.423c-6.597,6.285-9.888,13.928-9.888,22.941c0,8.468,1.989,16.386,5.982,23.759
		c3.985,7.374,9.541,13.864,16.663,19.459c7.117,5.601,15.382,9.971,24.783,13.107c9.399,3.144,19.508,4.713,30.336,4.713
		c10.534,0,20.576-1.91,30.122-5.735c9.539-3.823,17.798-8.942,24.781-15.363c6.978-6.412,12.53-13.652,16.664-21.712
		c4.126-8.052,6.196-16.317,6.196-24.785h0.001V-590.38v-11.47c0-3.002,0.994-5.459,2.99-7.374
		C286.684-611.13,289.248-612.091,292.385-612.091z"/>
	<linearGradient id="SVGID_6_" gradientUnits="userSpaceOnUse" x1="56.5791" y1="-619.1331" x2="56.5791" y2="-109.1331">
		<stop  offset="0" style="stop-color:#FD0000"/>
		<stop  offset="0.3333" style="stop-color:#ED1931"/>
		<stop  offset="0.6666" style="stop-color:#FD0C68"/>
		<stop  offset="1" style="stop-color:#CB018F"/>
	</linearGradient>
	<path fill="url(#SVGID_6_)" d="M166.115-266.815L68.513-543.741L-7.779-327.854h-0.426v0.82l-11.083,31.542
		c-1.704,4.646-3.981,9.153-6.819,13.52c-2.843,4.371-6.18,8.262-10.015,11.675c-3.837,3.417-8.099,6.144-12.787,8.192
		c-4.688,2.048-9.735,3.074-15.13,3.074v2.047h76.293v-2.047c-8.244,0-15.277-2.867-21.098-8.603
		c-5.827-5.734-8.737-12.56-8.737-20.483c0-3.002,0.427-6.004,1.278-9.015l10.229-28.264h86.947l20.458,57.352
		c0,0.551,0.065,0.961,0.213,1.229c0.14,0.275,0.214,0.686,0.214,1.229c0,1.641-0.641,3.144-1.919,4.507
		c-1.279,1.371-2.917,2.049-4.901,2.049v2.047h82.259v-2.047C171.795-259.031,168.1-261.625,166.115-266.815z M-5.647-327.854
		L37.4-449.111l42.622,121.257H-5.647z"/>
</g>
<g>
	<linearGradient id="SVGID_7_" gradientUnits="userSpaceOnUse" x1="-121.5825" y1="-214.9583" x2="-121.5825" y2="275.7304">
		<stop  offset="0" style="stop-color:#FF2F00"/>
		<stop  offset="0.3333" style="stop-color:#ED0201"/>
		<stop  offset="0.6666" style="stop-color:#FD0C68"/>
		<stop  offset="1" style="stop-color:#CB018F"/>
	</linearGradient>
	<path fill="url(#SVGID_7_)" d="M-5.478,266.047c-5.399-0.693-10.227-3.129-14.486-7.299c-5.399-5.281-10.373-12.653-14.913-22.108
		c-4.546-9.451-8.947-19.324-13.209-29.615c-4.26-10.285-8.666-20.294-13.206-30.031c-4.548-9.73-9.521-17.657-14.913-23.775
		c-8.521-8.896-17.47-14.737-26.843-17.517c21.869-4.171,38.699-12.932,50.49-26.279c11.784-13.346,17.682-30.45,17.682-51.303
		c0-25.026-8.521-44.629-25.564-58.812c-17.043-14.18-40.903-21.273-71.581-21.273h-43.885h-48.998h-29.399v2.504
		c3.122,0,5.679,0.977,7.668,2.92c1.984,1.948,2.982,4.452,2.982,7.506V1.391v159.337v38.789v36.288v21.271
		c0,3.064-0.999,5.569-2.982,7.508c-1.989,1.951-4.547,2.921-7.668,2.921v2.503h59.225h29.824v-2.503
		c-3.128,0-5.686-0.97-7.669-2.921c-1.99-1.938-2.982-4.443-2.982-7.508v-21.271v-30.032v-43.795v-23.356
		c9.654,0.28,16.83,4.033,21.517,11.262c4.688,7.233,8.663,16.201,11.931,26.903c3.261,10.707,6.458,22.178,9.585,34.41
		c3.125,12.24,7.81,23.638,14.061,34.202c6.247,10.57,14.979,19.397,26.204,26.487c11.218,7.093,26.345,10.636,45.377,10.636
		c7.669,0,14.766-0.696,21.304-2.086c6.532-1.391,12.283-3.127,17.256-5.213c4.966-2.086,9.161-4.245,12.569-6.466
		c3.409-2.222,5.819-4.169,7.241-5.838l-1.704-1.668C4.887,265.149-0.085,266.744-5.478,266.047z M-119.663,119.223
		c-4.833,5.982-10.013,10.289-15.55,12.931c-5.54,2.643-10.728,3.96-15.554,3.96h-25.139V42.268v-26.28V1.389V-9.037
		c0-3.054,0.992-5.56,2.983-7.506c1.983-1.943,4.54-2.92,7.668-2.92h4.261h11.93h2.557c4.826,0,9.798,1.252,14.91,3.755
		c5.115,2.501,9.801,6.816,14.062,12.93c4.26,6.121,7.809,14.116,10.65,23.983c2.838,9.874,4.262,22.179,4.264,36.913
		c0,14.741-1.637,27.111-4.9,37.121C-110.787,105.25-114.836,113.246-119.663,119.223z"/>
	<linearGradient id="SVGID_8_" gradientUnits="userSpaceOnUse" x1="-326.7163" y1="-214.9573" x2="-326.7163" y2="275.7302">
		<stop  offset="0" style="stop-color:#FF2F00"/>
		<stop  offset="0.3333" style="stop-color:#ED0201"/>
		<stop  offset="0.6666" style="stop-color:#FD0C68"/>
		<stop  offset="1" style="stop-color:#CB018F"/>
	</linearGradient>
	<path fill="url(#SVGID_8_)" d="M-243.638-224.919v-2.503h-6.834h-82.438v2.503c3.129,0,5.693,0.978,7.688,2.92
		c1.989,1.95,2.99,4.452,2.99,7.508V-4.269c0,8.623-0.281,16.827-0.835,24.608c-0.56,7.788-1.534,14.671-2.929,20.649
		c-1.396,5.98-3.345,10.776-5.847,14.388c-2.511,3.619-5.713,5.566-9.611,5.842c-5.7,0.56-10.251-0.9-13.668-4.383
		c-3.416-3.472-5.413-6.737-5.979-9.799c-0.574-3.057-0.426-6.256,0.428-9.594c0.853-3.337,3.416-6.949,7.688-10.846
		c7.401-6.392,11.106-14.455,11.106-24.19c0-9.179-3.297-16.959-9.891-23.359c-6.594-6.395-14.617-9.593-24.066-9.593
		c-9.458,0-17.48,3.199-24.074,9.593c-6.594,6.399-9.884,14.18-9.884,23.359c0,8.622,1.989,16.684,5.98,24.19
		c3.984,7.509,9.538,14.117,16.658,19.813c7.115,5.703,15.377,10.152,24.775,13.346c9.396,3.201,19.501,4.798,30.326,4.798
		c10.531,0,20.57-1.945,30.112-5.839c9.536-3.893,17.792-9.106,24.773-15.643c6.976-6.529,12.526-13.901,16.659-22.107
		c4.124-8.198,6.194-16.614,6.194-25.236h0.001v-198.542v-11.679c0-3.056,0.994-5.558,2.989-7.508
		C-249.337-223.94-246.774-224.919-243.638-224.919z"/>
	<linearGradient id="SVGID_9_" gradientUnits="userSpaceOnUse" x1="-479.3213" y1="-214.9885" x2="-479.3213" y2="275.6989">
		<stop  offset="0" style="stop-color:#FF2F00"/>
		<stop  offset="0.3333" style="stop-color:#ED0201"/>
		<stop  offset="0.6666" style="stop-color:#FD0C68"/>
		<stop  offset="1" style="stop-color:#CB018F"/>
	</linearGradient>
	<path fill="url(#SVGID_9_)" d="M-369.821,126.606l-97.57-281.963l-76.267,219.814h-0.426v0.834l-11.08,32.117
		c-1.703,4.731-3.979,9.319-6.816,13.765c-2.842,4.45-6.178,8.412-10.012,11.887c-3.836,3.479-8.096,6.255-12.783,8.341
		c-4.686,2.085-9.732,3.13-15.125,3.13v2.083h76.268v-2.083c-8.242,0-15.272-2.92-21.091-8.759
		c-5.825-5.838-8.734-12.789-8.734-20.855c0-3.057,0.426-6.114,1.277-9.179l10.226-28.778h86.919l20.451,58.395
		c0,0.56,0.065,0.978,0.213,1.25c0.14,0.281,0.214,0.698,0.214,1.251c0,1.67-0.641,3.2-1.918,4.589
		c-1.279,1.396-2.917,2.086-4.9,2.086v2.083h82.232v-2.083C-364.143,134.532-367.836,131.891-369.821,126.606z M-541.527,64.457
		l43.033-123.463l42.608,123.463H-541.527z"/>
</g>
</svg>
